<svg width="226" height="46" viewBox="0 0 226 46" fill="none" xmlns="http://www.w3.org/2000/svg">
<path d="M26.023 8.46551L34.4629 16.6429L38.9641 12.2816L43.4654 7.92036L40.2301 4.51313C37.5575 1.78735 35.4475 1.10591 27.289 0.697042L17.5831 0.288174L26.023 8.46551Z" fill="#4986C7"/>
<path d="M6.04857 6.01232L0.843971 11.1913L5.76724 16.234C8.43987 19.0961 10.8312 21.413 11.1125 21.413C11.3938 21.413 12.0972 19.7775 12.5191 17.8695C13.0818 15.8251 15.0511 13.7808 17.5831 12.6905L21.803 11.055L16.4578 6.01232L11.1125 0.969629L6.04857 6.01232Z" fill="#4986C7"/>
<path d="M0.28133 25.6379C0.421994 33.2701 0.843989 34.4967 5.62659 39.1305C10.5499 43.9007 11.6752 44.4458 19.8337 44.8547C24.757 45.1273 28.8363 45.2635 28.8363 45.2635C28.8363 45.2635 22.3657 38.9943 14.3478 31.2258L0 17.3243L0.28133 25.6379Z" fill="#4986C7"/>
<path d="M33.1969 28.2274C32.2122 30.5443 29.9616 32.725 27.9923 33.1338C26.1637 33.5427 24.6163 34.2241 24.6163 34.4967C24.6163 34.633 26.867 37.2225 29.5396 40.0846L34.4629 45.2635L40.0895 39.812L45.7161 34.2241L40.3708 29.1814L35.1662 24.1388L33.1969 28.2274Z" fill="#4986C7"/>
<path d="M226 21.7273C226 23.3134 225.683 24.6629 225.048 25.7756C224.419 26.8883 223.56 27.7382 222.471 28.3253C221.387 28.9077 220.168 29.1989 218.814 29.1989C217.451 29.1989 216.227 28.9053 215.143 28.3182C214.059 27.7311 213.202 26.8812 212.573 25.7685C211.943 24.6558 211.629 23.3087 211.629 21.7273C211.629 20.1411 211.943 18.7917 212.573 17.679C213.202 16.5663 214.059 15.7187 215.143 15.1364C216.227 14.5492 217.451 14.2557 218.814 14.2557C220.168 14.2557 221.387 14.5492 222.471 15.1364C223.56 15.7187 224.419 16.5663 225.048 17.679C225.683 18.7917 226 20.1411 226 21.7273ZM222.711 21.7273C222.711 20.6998 222.548 19.8333 222.224 19.1278C221.904 18.4223 221.452 17.8873 220.867 17.5227C220.283 17.1581 219.599 16.9758 218.814 16.9758C218.03 16.9758 217.346 17.1581 216.761 17.5227C216.177 17.8873 215.722 18.4223 215.398 19.1278C215.078 19.8333 214.918 20.6998 214.918 21.7273C214.918 22.7547 215.078 23.6212 215.398 24.3267C215.722 25.0322 216.177 25.5672 216.761 25.9318C217.346 26.2964 218.03 26.4787 218.814 26.4787C219.599 26.4787 220.283 26.2964 220.867 25.9318C221.452 25.5672 221.904 25.0322 222.224 24.3267C222.548 23.6212 222.711 22.7547 222.711 21.7273Z" fill="white"/>
<path d="M198.052 29V14.4545H204.106C205.265 14.4545 206.254 14.651 207.073 15.044C207.897 15.4323 208.524 15.9839 208.954 16.6989C209.388 17.4091 209.606 18.2448 209.606 19.206C209.606 20.1719 209.386 21.0028 208.946 21.6989C208.507 22.3902 207.87 22.9205 207.036 23.2898C206.207 23.6591 205.202 23.8437 204.024 23.8437H199.97V21.3722H203.499C204.119 21.3722 204.633 21.2917 205.043 21.1307C205.452 20.9697 205.757 20.7282 205.957 20.4062C206.162 20.0843 206.264 19.6842 206.264 19.206C206.264 18.723 206.162 18.3158 205.957 17.9844C205.757 17.6529 205.45 17.402 205.035 17.2315C204.626 17.0563 204.109 16.9687 203.484 16.9687H201.296V29H198.052ZM206.339 22.3807L210.153 29H206.571L202.84 22.3807H206.339Z" fill="white"/>
<path d="M192.176 19.1562C192.071 18.8106 191.923 18.5052 191.734 18.2401C191.544 17.9702 191.311 17.7429 191.037 17.5582C190.767 17.3688 190.457 17.2244 190.108 17.125C189.763 17.0256 189.381 16.9758 188.961 16.9758C188.177 16.9758 187.488 17.1605 186.893 17.5298C186.304 17.8991 185.844 18.4365 185.515 19.142C185.185 19.8428 185.02 20.6998 185.02 21.7131C185.02 22.7263 185.182 23.5881 185.507 24.2983C185.832 25.0085 186.291 25.5507 186.886 25.9247C187.48 26.294 188.182 26.4787 188.991 26.4787C189.725 26.4787 190.352 26.3556 190.872 26.1094C191.396 25.8584 191.796 25.5057 192.071 25.0511C192.35 24.5966 192.49 24.0592 192.49 23.4389L193.15 23.5312H189.193V21.2159H195.615V23.0483C195.615 24.3267 195.33 25.4252 194.761 26.3437C194.191 27.2576 193.407 27.9631 192.408 28.4602C191.409 28.9526 190.265 29.1989 188.976 29.1989C187.538 29.1989 186.274 28.8982 185.185 28.2969C184.096 27.6908 183.247 26.8314 182.637 25.7187C182.033 24.6013 181.731 23.2756 181.731 21.7415C181.731 20.5625 181.91 19.5114 182.27 18.5881C182.635 17.66 183.144 16.874 183.799 16.2301C184.453 15.5862 185.215 15.0961 186.084 14.7599C186.953 14.4238 187.895 14.2557 188.909 14.2557C189.778 14.2557 190.587 14.3764 191.336 14.6179C192.086 14.8546 192.75 15.1908 193.33 15.6264C193.914 16.062 194.391 16.5805 194.761 17.1818C195.13 17.7784 195.368 18.4365 195.472 19.1562H192.176Z" fill="white"/>
<path d="M169.583 29H166.106L171.404 14.4545H175.585L180.875 29H177.398L173.554 17.7784H173.434L169.583 29ZM169.366 23.2827H177.578V25.6832H169.366V23.2827Z" fill="white"/>
<path d="M153.219 21.7273C153.219 23.3134 152.901 24.6629 152.267 25.7756C151.638 26.8883 150.778 27.7382 149.689 28.3253C148.606 28.9077 147.387 29.1989 146.033 29.1989C144.669 29.1989 143.445 28.9053 142.362 28.3182C141.278 27.7311 140.421 26.8812 139.791 25.7685C139.162 24.6558 138.847 23.3087 138.847 21.7273C138.847 20.1411 139.162 18.7917 139.791 17.679C140.421 16.5663 141.278 15.7187 142.362 15.1364C143.445 14.5492 144.669 14.2557 146.033 14.2557C147.387 14.2557 148.606 14.5492 149.689 15.1364C150.778 15.7187 151.638 16.5663 152.267 17.679C152.901 18.7917 153.219 20.1411 153.219 21.7273ZM149.929 21.7273C149.929 20.6998 149.767 19.8333 149.442 19.1278C149.123 18.4223 148.67 17.8873 148.086 17.5227C147.502 17.1581 146.817 16.9758 146.033 16.9758C145.249 16.9758 144.564 17.1581 143.98 17.5227C143.396 17.8873 142.941 18.4223 142.616 19.1278C142.297 19.8333 142.137 20.6998 142.137 21.7273C142.137 22.7547 142.297 23.6212 142.616 24.3267C142.941 25.0322 143.396 25.5672 143.98 25.9318C144.564 26.2964 145.249 26.4787 146.033 26.4787C146.817 26.4787 147.502 26.2964 148.086 25.9318C148.67 25.5672 149.123 25.0322 149.442 24.3267C149.767 23.6212 149.929 22.7547 149.929 21.7273Z" fill="white"/>
<path d="M136.791 19.5469H133.509C133.449 19.1444 133.326 18.7869 133.142 18.4744C132.957 18.1572 132.72 17.8873 132.43 17.6648C132.14 17.4422 131.805 17.2718 131.426 17.1534C131.051 17.035 130.644 16.9758 130.204 16.9758C129.41 16.9758 128.718 17.1629 128.129 17.5369C127.54 17.9062 127.082 18.446 126.758 19.1562C126.433 19.8617 126.271 20.7187 126.271 21.7273C126.271 22.7642 126.433 23.6354 126.758 24.3409C127.087 25.0464 127.547 25.5791 128.136 25.9389C128.726 26.2988 129.408 26.4787 130.182 26.4787C130.617 26.4787 131.019 26.4242 131.388 26.3153C131.763 26.2064 132.095 26.0478 132.385 25.8395C132.675 25.6264 132.914 25.3684 133.104 25.0653C133.299 24.7623 133.434 24.4167 133.509 24.0284L136.791 24.0426C136.706 24.7102 136.493 25.3542 136.154 25.9744C135.819 26.59 135.367 27.1416 134.798 27.6293C134.233 28.1122 133.559 28.4957 132.774 28.7798C131.995 29.0592 131.114 29.1989 130.13 29.1989C128.761 29.1989 127.537 28.9053 126.458 28.3182C125.384 27.7311 124.535 26.8812 123.911 25.7685C123.291 24.6558 122.981 23.3087 122.981 21.7273C122.981 20.1411 123.296 18.7917 123.925 17.679C124.555 16.5663 125.409 15.7187 126.488 15.1364C127.567 14.5492 128.781 14.2557 130.13 14.2557C131.019 14.2557 131.843 14.374 132.602 14.6108C133.366 14.8475 134.043 15.1932 134.633 15.6477C135.222 16.0975 135.702 16.6491 136.071 17.3026C136.446 17.956 136.686 18.7041 136.791 19.5469Z" fill="white"/>
<path d="M111.877 29V14.4545H115.121V26.4645H121.7V29H111.877Z" fill="white"/>
<path d="M98.7384 29H95.2618L100.559 14.4545H104.74L110.03 29H106.553L102.71 17.7784H102.59L98.7384 29ZM98.5211 23.2827H106.733V25.6832H98.5211V23.2827Z" fill="white"/>
<path d="M94.5556 21.7273C94.5556 23.3134 94.2384 24.6629 93.604 25.7756C92.9746 26.8883 92.1154 27.7382 91.0265 28.3253C89.9425 28.9077 88.7237 29.1989 87.37 29.1989C86.0063 29.1989 84.7825 28.9053 83.6985 28.3182C82.6146 27.7311 81.7579 26.8812 81.1285 25.7685C80.4991 24.6558 80.1844 23.3087 80.1844 21.7273C80.1844 20.1411 80.4991 18.7917 81.1285 17.679C81.7579 16.5663 82.6146 15.7187 83.6985 15.1364C84.7825 14.5492 86.0063 14.2557 87.37 14.2557C88.7237 14.2557 89.9425 14.5492 91.0265 15.1364C92.1154 15.7187 92.9746 16.5663 93.604 17.679C94.2384 18.7917 94.5556 20.1411 94.5556 21.7273ZM91.2663 21.7273C91.2663 20.6998 91.1039 19.8333 90.7792 19.1278C90.4595 18.4223 90.0075 17.8873 89.423 17.5227C88.8386 17.1581 88.1542 16.9758 87.37 16.9758C86.5858 16.9758 85.9014 17.1581 85.317 17.5227C84.7325 17.8873 84.278 18.4223 83.9533 19.1278C83.6336 19.8333 83.4737 20.6998 83.4737 21.7273C83.4737 22.7547 83.6336 23.6212 83.9533 24.3267C84.278 25.0322 84.7325 25.5672 85.317 25.9318C85.9014 26.2964 86.5858 26.4787 87.37 26.4787C88.1542 26.4787 88.8386 26.2964 89.423 25.9318C90.0075 25.5672 90.4595 25.0322 90.7792 24.3267C91.1039 23.6212 91.2663 22.7547 91.2663 21.7273Z" fill="white"/>
<path d="M78.1276 19.5469H74.8458C74.7858 19.1444 74.6634 18.7869 74.4786 18.4744C74.2938 18.1572 74.0565 17.8873 73.7668 17.6648C73.4771 17.4422 73.1424 17.2718 72.7628 17.1534C72.3881 17.035 71.981 16.9758 71.5414 16.9758C70.7472 16.9758 70.0554 17.1629 69.4659 17.5369C68.8765 17.9062 68.4194 18.446 68.0948 19.1562C67.7701 19.8617 67.6077 20.7187 67.6077 21.7273C67.6077 22.7642 67.7701 23.6354 68.0948 24.3409C68.4244 25.0464 68.884 25.5791 69.4734 25.9389C70.0629 26.2988 70.7447 26.4787 71.519 26.4787C71.9536 26.4787 72.3557 26.4242 72.7253 26.3153C73.0999 26.2064 73.4321 26.0478 73.7219 25.8395C74.0116 25.6264 74.2513 25.3684 74.4412 25.0653C74.636 24.7623 74.7708 24.4167 74.8458 24.0284L78.1276 24.0426C78.0427 24.7102 77.8304 25.3542 77.4907 25.9744C77.156 26.59 76.704 27.1416 76.1345 27.6293C75.5701 28.1122 74.8957 28.4957 74.1115 28.7798C73.3322 29.0592 72.4506 29.1989 71.4665 29.1989C70.0978 29.1989 68.874 28.9053 67.795 28.3182C66.7211 27.7311 65.8719 26.8812 65.2475 25.7685C64.6281 24.6558 64.3184 23.3087 64.3184 21.7273C64.3184 20.1411 64.6331 18.7917 65.2625 17.679C65.8919 16.5663 66.7461 15.7187 67.825 15.1364C68.904 14.5492 70.1178 14.2557 71.4665 14.2557C72.3557 14.2557 73.1799 14.374 73.9391 14.6108C74.7034 14.8475 75.3803 15.1932 75.9697 15.6477C76.5591 16.0975 77.0387 16.6491 77.4083 17.3026C77.7829 17.956 78.0227 18.7041 78.1276 19.5469Z" fill="white"/>
<rect x="156" y="21" width="8" height="2" fill="white"/>
</svg>
