<svg width="1839" height="860" viewBox="0 0 1839 860" fill="none" xmlns="http://www.w3.org/2000/svg">
<path fill-rule="evenodd" clip-rule="evenodd" d="M290.626 111.449C103.252 191.161 0 304.219 0 429.87C0 555.469 103.252 668.565 290.665 748.278C459.661 820.091 682.923 859.688 919.232 859.688C1155.52 859.688 1378.71 820.091 1547.75 748.278C1735.15 668.54 1838.37 555.456 1838.37 429.87C1838.37 304.219 1735.15 191.161 1547.75 111.449C1378.71 39.5319 1155.52 0 919.232 0C682.91 0 459.648 39.5319 290.626 111.449Z" fill="white"/>
<path fill-rule="evenodd" clip-rule="evenodd" d="M1770.57 429.87C1770.57 229.889 1389.35 67.8057 919.193 67.8057C448.987 67.8057 67.78 229.876 67.78 429.87C67.78 629.812 448.987 791.882 919.193 791.882C1389.35 791.869 1770.57 629.799 1770.57 429.87Z" fill="#7DB55A"/>
<path fill-rule="evenodd" clip-rule="evenodd" d="M1116.17 120.204C1068.37 120.204 1029.59 159.658 1029.59 208.203C1029.59 256.723 1068.37 296.216 1116.17 296.216C1163.95 296.216 1202.78 256.736 1202.78 208.203C1202.78 159.645 1163.95 120.204 1116.17 120.204ZM1116.17 284.427C1074.95 284.427 1041.39 250.187 1041.39 208.203C1041.39 166.181 1074.93 132.032 1116.17 132.032C1157.41 132.032 1190.95 166.181 1190.95 208.203C1190.95 250.187 1157.41 284.427 1116.17 284.427Z" fill="#A3C54D"/>
<path fill-rule="evenodd" clip-rule="evenodd" d="M468.416 616.375C468.416 604.43 469.492 592.653 471.477 581.331C430.144 573.429 387.539 575.255 347.033 586.664C306.528 598.072 269.233 618.75 238.099 647.062C312.377 689.084 407.717 724.024 517.429 749.043C485.724 712.12 468.332 665.041 468.416 616.375Z" fill="#A2C35A"/>
<path fill-rule="evenodd" clip-rule="evenodd" d="M471.477 581.331C469.447 592.902 468.423 604.627 468.416 616.375C468.416 667.061 486.872 713.376 517.429 749.056C569.762 760.988 625.311 770.663 683.429 777.784C656.607 677.903 574.327 600.681 471.477 581.331Z" fill="#C0D384"/>
<path fill-rule="evenodd" clip-rule="evenodd" d="M877.08 616.375C877.08 503.525 785.605 412.049 672.755 412.049C571.85 412.049 488.091 485.173 471.477 581.344C574.327 600.695 656.607 677.916 683.416 777.797C716.359 781.83 750.119 784.995 784.58 787.342C840.272 750.858 877.08 687.929 877.08 616.375Z" fill="#A6C55A"/>
<path fill-rule="evenodd" clip-rule="evenodd" d="M207.296 445.278C208.761 543.576 276.217 554.029 306.735 554.094C358.264 554.185 379.703 532.072 379.703 532.072C379.703 532.072 369.184 503.084 337.149 508.389C314.05 512.215 256.931 521.864 256.931 445.278C256.931 368.653 315.126 373.802 330.366 377.913C356.604 384.891 377.757 354.853 377.757 354.853C377.757 354.853 362.777 335.411 316.021 332.895C265.128 330.158 206.103 367.745 207.296 445.278ZM503.862 506.612C488.558 516.949 450.038 518.414 448.806 485.238C447.781 458.001 473.63 440.777 518.622 450.479V469.48C518.622 484.952 516.3 498.13 503.862 506.612ZM582.719 537.493C569.204 529.763 566.753 507.74 566.753 476.807C566.753 462.943 566.844 446.108 566.844 439.065C566.844 385.838 559.684 346.578 506.936 335.554C454.214 324.439 420.065 346.215 420.065 346.215C420.065 346.215 434.331 377.55 459.661 376.642C466.367 376.37 469.22 376.071 475.485 375.591C498.973 373.789 518.492 381.519 518.44 411.077C470.037 402.179 400.882 417.795 400.882 487.495C400.792 565.157 494.991 570.397 524.095 529.426C526.131 535.275 532.876 552.447 553.031 554.094C573.186 555.793 578.815 545.002 582.719 537.493ZM1573.88 506.612C1558.58 516.949 1520.08 518.414 1518.81 485.238C1517.8 458.001 1543.69 440.777 1588.68 450.479V469.48C1588.68 484.952 1586.4 498.13 1573.88 506.612ZM1652.79 537.493C1639.26 529.763 1636.81 507.74 1636.81 476.807C1636.81 462.943 1636.89 446.108 1636.89 439.065C1636.89 385.838 1629.72 346.578 1577.01 335.554C1524.27 324.439 1490.12 346.215 1490.12 346.215C1490.12 346.215 1504.39 377.55 1529.74 376.642C1536.46 376.37 1539.26 376.071 1545.56 375.591C1569.06 373.789 1588.54 381.519 1588.5 411.077C1540.09 402.179 1470.97 417.795 1470.91 487.495C1470.91 565.157 1565.05 570.397 1594.13 529.426C1596.23 535.275 1602.95 552.447 1623.13 554.094C1643.27 555.793 1648.92 545.002 1652.79 537.493ZM891.814 409.443C891.632 378.056 878.598 332.428 821.336 332.739C789.911 332.882 772.038 349.302 766.228 356.072C752.739 341.066 730.288 331.663 707.021 332.739C683.805 333.816 671.25 342.181 658.695 356.305L658.605 336.799H615.558V549.996H663.494V396.875C666.361 391.959 679.239 376.616 696.23 375.566C713.272 374.515 729.692 384.813 729.77 408.729V511.424C729.77 542.46 751.364 549.944 763.789 549.944C769.003 549.944 777.693 549.996 777.693 549.996V396.304C780.845 389.469 792.725 375.812 810.04 375.566C832.231 375.267 843.943 388.924 843.943 416.446L843.969 511.424C843.969 542.097 865.122 550.035 878.753 550.035C886.004 550.035 891.827 550.009 891.827 550.009L891.814 409.443ZM1013.57 511.1C1000.37 510.827 993.056 507.507 984.846 500.438L984.95 389.767C992.55 383.866 999.917 378.211 1016 375.63C1033.37 372.907 1072.76 375.993 1072.76 444.111C1072.76 512.241 1026.75 511.424 1013.57 511.1ZM984.95 356.643V337.123L937.169 337.188L937.104 617.426C937.104 647.775 957.493 656.037 971.941 656.037H985.002V545.495L985.144 545.469C996.882 551.345 999.489 552.784 1023.94 554.431C1050.47 556.169 1121.59 546.261 1122.46 445.408C1123.26 345.54 1059.68 330.509 1029.22 333.466C1007.71 335.463 993.899 344.386 984.95 356.643ZM1162.14 336.799L1162.12 511.424C1162.12 541.475 1182.79 550.061 1197.81 550.061H1211.04L1211.19 336.786L1162.14 336.799ZM1438.39 419.351C1438.39 377.187 1424.15 352.44 1400.27 341.39C1380.44 332.195 1335.12 323.051 1306.61 356.189L1306.69 336.799H1263.27V549.996H1311.19V396.084C1316.77 388.6 1332.19 375.566 1349.89 375.566C1374.64 375.566 1390.42 386.201 1390.42 426.757L1390.37 511.424C1390.37 541.825 1411.45 550.035 1425.33 550.035L1438.32 550.009L1438.39 419.351Z" fill="#61A155"/>
<path fill-rule="evenodd" clip-rule="evenodd" d="M187.673 424.423C189.177 523.265 256.957 533.81 287.605 533.849C339.367 533.939 360.962 511.735 360.962 511.735C360.962 511.735 350.378 482.553 318.187 487.897C294.971 491.723 237.554 501.411 237.554 424.423C237.554 347.473 296.048 352.661 311.365 356.759C337.72 363.802 358.99 333.569 358.99 333.569C358.99 333.569 343.984 314.037 296.982 311.521C245.816 308.771 186.453 346.578 187.673 424.423ZM484.706 486.081C469.337 496.509 430.583 497.974 429.351 464.642C428.327 437.276 454.37 419.922 499.531 429.688V448.832C499.543 464.382 497.287 477.638 484.706 486.081ZM563.99 517.143C550.424 509.413 547.973 487.248 547.973 456.16C547.973 442.204 548.024 425.279 548.024 418.236C548.024 364.71 540.826 325.269 487.819 314.193C434.837 303.052 400.532 324.932 400.532 324.932C400.532 324.932 414.825 356.396 440.311 355.488C447.055 355.216 449.934 354.892 456.186 354.412C479.804 352.622 499.414 360.378 499.336 390.118C450.699 381.194 381.207 396.862 381.181 466.886C381.155 544.99 475.809 550.203 505.095 509.024C507.092 514.926 513.862 532.214 534.147 533.887C554.431 535.535 560.099 524.679 563.99 517.143ZM1554.79 486.081C1539.38 496.509 1500.65 497.974 1499.41 464.642C1498.4 437.276 1524.41 419.922 1569.57 429.688V448.832C1569.57 464.382 1567.31 477.638 1554.79 486.081ZM1634.02 517.143C1620.44 509.413 1618.02 487.248 1618.02 456.16C1618.02 442.204 1618.07 425.279 1618.07 418.236C1618.07 364.71 1610.87 325.269 1557.9 314.193C1504.91 303.052 1470.56 324.932 1470.56 324.932C1470.56 324.932 1484.92 356.396 1510.38 355.488C1517.13 355.216 1519.95 354.892 1526.27 354.412C1549.85 352.622 1569.48 360.378 1569.46 390.118C1520.74 381.194 1451.29 396.862 1451.26 466.886C1451.24 544.99 1545.88 550.203 1575.11 509.024C1577.16 514.926 1583.98 532.214 1604.22 533.887C1624.5 535.535 1630.17 524.679 1634.02 517.143ZM873.332 388.509C873.125 356.941 859.999 311.08 802.504 311.378C770.897 311.534 752.96 328.005 747.097 334.84C733.557 319.77 710.964 310.302 687.618 311.378C664.285 312.455 651.653 320.872 638.994 335.074L638.943 315.49H595.662V529.763H643.832V375.838C646.776 370.896 659.681 355.462 676.775 354.425C693.844 353.4 710.419 363.737 710.471 387.757V490.996C710.471 522.137 732.182 529.724 744.672 529.724L758.653 529.75V375.267C761.831 368.341 773.724 354.658 791.156 354.425C813.477 354.139 825.214 367.874 825.214 395.513L825.24 490.996C825.24 521.826 846.472 529.75 860.194 529.75H873.332V388.509ZM994.275 490.4C983.726 490.105 973.572 486.319 965.404 479.635L965.521 368.432C972.512 362.233 982.654 356.539 996.674 354.243C1014.2 351.364 1053.79 354.593 1053.79 423.061C1053.79 491.476 1007.58 490.581 994.275 490.4ZM965.534 335.139V315.49L917.494 315.541L917.468 597.206C917.468 627.763 937.947 636.024 952.448 636.024H965.599V524.899H965.742C977.583 530.762 980.177 532.266 1004.77 533.874C1031.39 535.651 1102.86 525.704 1103.7 424.345C1104.51 323.946 1040.68 308.823 1010.01 311.78C988.452 313.894 974.548 322.856 965.534 335.139ZM1142.82 315.49L1142.79 490.996C1142.79 521.164 1163.57 529.75 1178.67 529.75H1191.99L1192.14 315.451L1142.82 315.49ZM1419.62 398.457C1419.62 356.072 1405.3 331.17 1381.37 320.068C1361.38 310.807 1315.81 301.677 1287.21 334.957L1287.26 315.49H1243.64V529.763H1291.8V375.047C1297.4 367.485 1312.93 354.412 1330.71 354.412C1355.64 354.412 1371.47 365.112 1371.47 405.837L1371.4 490.983C1371.4 521.501 1392.6 529.737 1406.53 529.737H1419.55L1419.62 398.457Z" fill="white"/>
<path fill-rule="evenodd" clip-rule="evenodd" d="M1041.41 208.19C1041.41 166.168 1074.95 132.019 1116.18 132.019C1157.42 132.019 1190.96 166.168 1190.96 208.19C1190.96 250.187 1157.42 284.414 1116.18 284.414C1074.95 284.427 1041.41 250.187 1041.41 208.19Z" fill="#E4E5B5"/>
</svg>
